<svg width="61" height="52" viewBox="0 0 61 52" fill="none" xmlns="http://www.w3.org/2000/svg">
<g filter="url(#filter0_d_38_455)">
<rect x="4" width="52.8" height="43.0892" rx="8" fill="#009660"/>
<path d="M30 25.75C32.0711 25.75 33.75 24.0711 33.75 22C33.75 19.9289 32.0711 18.25 30 18.25C27.9289 18.25 26.25 19.9289 26.25 22C26.25 24.0711 27.9289 25.75 30 25.75Z" stroke="white" stroke-width="3" stroke-linecap="round" stroke-linejoin="round"/>
<path d="M32.5 10.75C33.4409 10.7497 34.3698 10.962 35.2173 11.3708C36.0648 11.7797 36.8091 12.3746 37.3945 13.1113C37.98 13.8479 38.3916 14.7072 38.5986 15.6252C38.8056 16.5431 38.8026 17.4959 38.59 18.4125C39.3404 18.6404 40.0005 19.0978 40.4774 19.7204C40.9544 20.343 41.2241 21.0994 41.2486 21.8833C41.2732 22.6672 41.0514 23.4391 40.6144 24.0903C40.1774 24.7415 39.5472 25.2394 38.8125 25.5138C39.2089 25.8847 39.5201 26.3373 39.7245 26.8403C39.9289 27.3434 40.0216 27.8848 39.9963 28.4271C39.9709 28.9695 39.8281 29.4999 39.5777 29.9816C39.3273 30.4634 38.9752 30.885 38.5459 31.2174C38.1166 31.5497 37.6202 31.7849 37.091 31.9066C36.5619 32.0283 36.0127 32.0337 35.4812 31.9223C34.9498 31.811 34.4489 31.5855 34.0132 31.2616C33.5775 30.9377 33.2172 30.523 32.9575 30.0463C32.5519 30.7658 32.0077 31.3978 31.3564 31.9057C30.7051 32.4136 29.9595 32.7874 29.1629 33.0055C28.3662 33.2235 27.5343 33.2815 26.7151 33.1761C25.8959 33.0706 25.1057 32.8039 24.3902 32.3912C23.6748 31.9785 23.0482 31.4281 22.5467 30.7719C22.0452 30.1156 21.6788 29.3664 21.4686 28.5676C21.2585 27.7689 21.2087 26.9364 21.3222 26.1182C21.4357 25.3001 21.7103 24.5126 22.13 23.8013C20.662 23.0313 19.56 21.7097 19.0664 20.1273C18.5729 18.5448 18.7281 16.8311 19.4981 15.3631C20.268 13.8952 21.5896 12.7932 23.1721 12.2996C24.7545 11.806 26.4682 11.9613 27.9362 12.7313C28.5199 12.1051 29.2264 11.606 30.0116 11.2651C30.7969 10.9242 31.6439 10.7489 32.5 10.75Z" stroke="white" stroke-width="3" stroke-linecap="round" stroke-linejoin="round"/>
</g>
<defs>
<filter id="filter0_d_38_455" x="0" y="0" width="60.8" height="51.0892" filterUnits="userSpaceOnUse" color-interpolation-filters="sRGB">
<feFlood flood-opacity="0" result="BackgroundImageFix"/>
<feColorMatrix in="SourceAlpha" type="matrix" values="0 0 0 0 0 0 0 0 0 0 0 0 0 0 0 0 0 0 127 0" result="hardAlpha"/>
<feOffset dy="4"/>
<feGaussianBlur stdDeviation="2"/>
<feComposite in2="hardAlpha" operator="out"/>
<feColorMatrix type="matrix" values="0 0 0 0 0 0 0 0 0 0 0 0 0 0 0 0 0 0 0.25 0"/>
<feBlend mode="normal" in2="BackgroundImageFix" result="effect1_dropShadow_38_455"/>
<feBlend mode="normal" in="SourceGraphic" in2="effect1_dropShadow_38_455" result="shape"/>
</filter>
</defs>
</svg>
