<svg width="58" height="56" viewBox="0 0 58 56" fill="none" xmlns="http://www.w3.org/2000/svg">
<path d="M28.75 6.99043C33.3452 6.99043 37.1833 10.1361 38.1177 14.3327C40.5713 13.6869 43.1883 14.0155 45.3928 15.2463C47.5973 16.4771 49.2088 18.5092 49.8728 20.8956C50.5368 23.2819 50.1989 25.8271 48.9335 27.9712C47.668 30.1153 45.5786 31.6826 43.125 32.3284V48.933H14.3749V32.3284C13.1312 32.0341 11.9607 31.5006 10.9324 30.7593C9.90405 30.018 9.03874 29.084 8.38747 28.0122C7.7362 26.9405 7.31216 25.7528 7.14035 24.5192C6.96855 23.2856 7.05245 22.031 7.38711 20.8294C7.72177 19.6278 8.30042 18.5035 9.08894 17.5229C9.87746 16.5423 10.8599 15.7251 11.9783 15.1196C13.0967 14.5141 14.3284 14.1326 15.6008 13.9974C16.8733 13.8623 18.1606 13.9763 19.387 14.3327C19.851 12.253 21.033 10.3904 22.7363 9.05468C24.4397 7.71892 26.5619 6.99046 28.75 6.99043Z" stroke="#003049" stroke-width="5" stroke-linecap="round" stroke-linejoin="round"/>
<path d="M14.7609 39.6334L43.1252 39.6124" stroke="#003049" stroke-width="5" stroke-linecap="round" stroke-linejoin="round"/>
</svg>
