<svg width="61" height="52" viewBox="0 0 61 52" fill="none" xmlns="http://www.w3.org/2000/svg">
<g filter="url(#filter0_d_54_1070)">
<rect x="4" width="52.8" height="43.0892" rx="8" fill="#308F95"/>
</g>
<path d="M23 29.6515C24.2887 29.6515 25.3333 28.6164 25.3333 27.3396C25.3333 26.0627 24.2887 25.0276 23 25.0276C21.7113 25.0276 20.6667 26.0627 20.6667 27.3396C20.6667 28.6164 21.7113 29.6515 23 29.6515Z" stroke="white" stroke-width="2" stroke-miterlimit="10" stroke-linecap="round" stroke-linejoin="round"/>
<path d="M16 21.5597V33.1194H30.1167C30.1167 32.8883 30 32.7727 30 32.5415C30 30.9231 31.2833 29.6515 32.9167 29.6515C34.55 29.6515 35.8333 30.9231 35.8333 32.5415C35.8333 32.7727 35.8333 32.8883 35.7167 33.1194H44V21.5597" stroke="white" stroke-width="2" stroke-miterlimit="10" stroke-linecap="round" stroke-linejoin="round"/>
<path d="M44 21.5597C44 15.2019 38.75 10 32.3333 10L16 21.5597H32.3333" stroke="white" stroke-width="2" stroke-miterlimit="10" stroke-linecap="round" stroke-linejoin="round"/>
<path d="M35.8334 25.0276C37.7664 25.0276 39.3334 23.475 39.3334 21.5597C39.3334 19.6444 37.7664 18.0918 35.8334 18.0918C33.9004 18.0918 32.3334 19.6444 32.3334 21.5597C32.3334 23.475 33.9004 25.0276 35.8334 25.0276Z" stroke="white" stroke-width="2" stroke-miterlimit="10" stroke-linecap="round" stroke-linejoin="round"/>
<defs>
<filter id="filter0_d_54_1070" x="0" y="0" width="60.8" height="51.0892" filterUnits="userSpaceOnUse" color-interpolation-filters="sRGB">
<feFlood flood-opacity="0" result="BackgroundImageFix"/>
<feColorMatrix in="SourceAlpha" type="matrix" values="0 0 0 0 0 0 0 0 0 0 0 0 0 0 0 0 0 0 127 0" result="hardAlpha"/>
<feOffset dy="4"/>
<feGaussianBlur stdDeviation="2"/>
<feComposite in2="hardAlpha" operator="out"/>
<feColorMatrix type="matrix" values="0 0 0 0 0 0 0 0 0 0 0 0 0 0 0 0 0 0 0.25 0"/>
<feBlend mode="normal" in2="BackgroundImageFix" result="effect1_dropShadow_54_1070"/>
<feBlend mode="normal" in="SourceGraphic" in2="effect1_dropShadow_54_1070" result="shape"/>
</filter>
</defs>
</svg>
