<svg width="61" height="52" viewBox="0 0 61 52" fill="none" xmlns="http://www.w3.org/2000/svg">
<g filter="url(#filter0_d_38_329)">
<rect x="4" width="52.8" height="43.0892" rx="8" fill="#C62F26"/>
</g>
<path d="M25.3125 15.4375V17.3125" stroke="white" stroke-width="2" stroke-miterlimit="10" stroke-linecap="round" stroke-linejoin="round"/>
<path d="M34.6875 15.4375V17.3125" stroke="white" stroke-width="2" stroke-miterlimit="10" stroke-linecap="round" stroke-linejoin="round"/>
<path d="M30 14.5V16.375" stroke="white" stroke-width="2" stroke-miterlimit="10" stroke-linecap="round" stroke-linejoin="round"/>
<path d="M41.0625 20.125C40.2187 14.7813 35.5313 10.75 30 10.75C24.4688 10.75 19.7812 14.7813 18.9375 20.125H41.0625Z" stroke="white" stroke-width="2" stroke-miterlimit="10" stroke-linecap="round" stroke-linejoin="round"/>
<path d="M18.75 22L20.1562 22.9375C21 23.5 22.125 23.5 22.9688 22.9375C23.8125 22.375 24.9375 22.375 25.7812 22.9375C26.625 23.5 27.75 23.5 28.5938 22.9375C29.4375 22.375 30.5625 22.375 31.4062 22.9375C32.25 23.5 33.375 23.5 34.2188 22.9375C35.0625 22.375 36.1875 22.375 37.0312 22.9375C37.875 23.5 39 23.5 39.8438 22.9375L41.25 22" stroke="white" stroke-width="2" stroke-miterlimit="10" stroke-linecap="round" stroke-linejoin="round"/>
<path d="M40.3125 29.5H19.6875C18.6562 29.5 17.8125 28.6563 17.8125 27.625C17.8125 26.5937 18.6562 25.75 19.6875 25.75H40.3125C41.3438 25.75 42.1875 26.5937 42.1875 27.625C42.1875 28.6563 41.3438 29.5 40.3125 29.5Z" stroke="white" stroke-width="2" stroke-miterlimit="10" stroke-linecap="round" stroke-linejoin="round"/>
<path d="M40.3125 29.5V30.8125C40.3125 32.2187 39.1875 33.25 37.875 33.25H22.125C20.8125 33.25 19.6875 32.125 19.6875 30.8125V29.5" stroke="white" stroke-width="2" stroke-miterlimit="10" stroke-linecap="round" stroke-linejoin="round"/>
<defs>
<filter id="filter0_d_38_329" x="0" y="0" width="60.8" height="51.0892" filterUnits="userSpaceOnUse" color-interpolation-filters="sRGB">
<feFlood flood-opacity="0" result="BackgroundImageFix"/>
<feColorMatrix in="SourceAlpha" type="matrix" values="0 0 0 0 0 0 0 0 0 0 0 0 0 0 0 0 0 0 127 0" result="hardAlpha"/>
<feOffset dy="4"/>
<feGaussianBlur stdDeviation="2"/>
<feComposite in2="hardAlpha" operator="out"/>
<feColorMatrix type="matrix" values="0 0 0 0 0 0 0 0 0 0 0 0 0 0 0 0 0 0 0.25 0"/>
<feBlend mode="normal" in2="BackgroundImageFix" result="effect1_dropShadow_38_329"/>
<feBlend mode="normal" in="SourceGraphic" in2="effect1_dropShadow_38_329" result="shape"/>
</filter>
</defs>
</svg>
