<svg width="17" height="18" viewBox="0 0 17 18" fill="none" xmlns="http://www.w3.org/2000/svg">
<path d="M8.49988 11.125C9.67348 11.125 10.6249 10.1736 10.6249 9C10.6249 7.82639 9.67348 6.875 8.49988 6.875C7.32627 6.875 6.37488 7.82639 6.37488 9C6.37488 10.1736 7.32627 11.125 8.49988 11.125Z" stroke="white" stroke-width="1.5" stroke-linecap="round" stroke-linejoin="round"/>
<path d="M9.91654 2.62497C10.4498 2.62483 10.9761 2.74508 11.4564 2.97677C11.9366 3.20845 12.3584 3.54558 12.6901 3.96301C13.0219 4.38045 13.2551 4.8674 13.3724 5.38756C13.4897 5.90771 13.488 6.44764 13.3675 6.96706C13.7928 7.09617 14.1669 7.35537 14.4371 7.70818C14.7074 8.06099 14.8602 8.48965 14.8741 8.93385C14.888 9.37805 14.7623 9.81544 14.5147 10.1845C14.2671 10.5535 13.91 10.8356 13.4936 10.9911C13.7183 11.2013 13.8946 11.4578 14.0105 11.7428C14.1263 12.0279 14.1788 12.3347 14.1645 12.642C14.1501 12.9493 14.0692 13.2499 13.9273 13.5229C13.7854 13.7959 13.5859 14.0348 13.3426 14.2231C13.0993 14.4115 12.818 14.5447 12.5182 14.6137C12.2183 14.6827 11.9071 14.6857 11.6059 14.6226C11.3048 14.5595 11.021 14.4318 10.774 14.2482C10.5271 14.0647 10.323 13.8297 10.1758 13.5595C9.94596 13.9672 9.63759 14.3254 9.26852 14.6132C8.89944 14.901 8.47697 15.1128 8.02554 15.2364C7.5741 15.36 7.10265 15.3928 6.63844 15.3331C6.17423 15.2733 5.72647 15.1222 5.32103 14.8883C4.9156 14.6545 4.56053 14.3426 4.27636 13.9707C3.99219 13.5988 3.78456 13.1743 3.66546 12.7216C3.54635 12.269 3.51815 11.7972 3.58247 11.3336C3.6468 10.87 3.80237 10.4238 4.04021 10.0207C3.20835 9.58437 2.5839 8.83548 2.30421 7.93876C2.02451 7.04203 2.1125 6.07093 2.54881 5.23908C2.98512 4.40723 3.73401 3.78277 4.63073 3.50308C5.52746 3.22339 6.49856 3.31137 7.33041 3.74768C7.66117 3.39285 8.06153 3.11002 8.50649 2.91685C8.95145 2.72368 9.43146 2.62432 9.91654 2.62497Z" stroke="white" stroke-width="1.5" stroke-linecap="round" stroke-linejoin="round"/>
</svg>
