<svg width="30" height="30" viewBox="0 0 30 30" fill="none" xmlns="http://www.w3.org/2000/svg">
<path d="M15 18.75C17.0711 18.75 18.75 17.0711 18.75 15C18.75 12.9289 17.0711 11.25 15 11.25C12.9289 11.25 11.25 12.9289 11.25 15C11.25 17.0711 12.9289 18.75 15 18.75Z" stroke="white" stroke-width="3" stroke-linecap="round" stroke-linejoin="round"/>
<path d="M17.5 3.75001C18.4409 3.74975 19.3698 3.96196 20.2173 4.37082C21.0648 4.77967 21.8091 5.37461 22.3945 6.11126C22.98 6.8479 23.3916 7.70723 23.5986 8.62515C23.8056 9.54307 23.8026 10.4959 23.59 11.4125C24.3404 11.6404 25.0005 12.0978 25.4774 12.7204C25.9544 13.343 26.2241 14.0994 26.2486 14.8833C26.2732 15.6672 26.0514 16.4391 25.6144 17.0903C25.1774 17.7415 24.5472 18.2394 23.8125 18.5138C24.2089 18.8847 24.5201 19.3373 24.7245 19.8403C24.9289 20.3434 25.0216 20.8848 24.9963 21.4271C24.9709 21.9695 24.8281 22.4999 24.5777 22.9816C24.3273 23.4634 23.9752 23.885 23.5459 24.2174C23.1166 24.5497 22.6202 24.7849 22.091 24.9066C21.5619 25.0283 21.0127 25.0337 20.4812 24.9223C19.9498 24.811 19.4489 24.5855 19.0132 24.2616C18.5775 23.9377 18.2172 23.523 17.9575 23.0463C17.5519 23.7658 17.0077 24.3978 16.3564 24.9057C15.7051 25.4136 14.9595 25.7874 14.1629 26.0055C13.3662 26.2235 12.5343 26.2815 11.7151 26.1761C10.8959 26.0706 10.1057 25.8039 9.39024 25.3912C8.67477 24.9785 8.04818 24.4281 7.54671 23.7719C7.04523 23.1156 6.67882 22.3664 6.46864 21.5676C6.25846 20.7689 6.20869 19.9364 6.3222 19.1182C6.43571 18.3001 6.71025 17.5126 7.12996 16.8013C5.66199 16.0313 4.56 14.7097 4.06643 13.1273C3.57286 11.5448 3.72813 9.8311 4.49809 8.36313C5.26804 6.89516 6.58961 5.79317 8.17207 5.2996C9.75453 4.80603 11.4682 4.9613 12.9362 5.73126C13.5199 5.10508 14.2264 4.60597 15.0116 4.26508C15.7969 3.92419 16.6439 3.74885 17.5 3.75001Z" stroke="white" stroke-width="3" stroke-linecap="round" stroke-linejoin="round"/>
</svg>
