<?xml version="1.0" encoding="UTF-8"?><svg id="Layer_2" xmlns="http://www.w3.org/2000/svg" viewBox="0 0 30 30"><defs><style>.cls-1{fill:#fff;}</style></defs><path class="cls-1" d="m29.83,16.55c-.13.34-.46.56-.83.56h-3.06v10.11c0,.5-.41.9-.9.9h-6.16c-.49,0-.9-.4-.9-.9v-7.84h-5.8v7.84c0,.5-.41.9-.9.9h-6.23c-.5,0-.9-.4-.9-.9v-10.11H1c-.37,0-.7-.22-.84-.56-.13-.34-.05-.73.22-.99l7.04-6.71,6.96-6.72c.34-.33.89-.33,1.24,0l4.71,4.46v-.41c0-.5.4-.9.9-.9h2.43c.5,0,.9.4.9.9v4.47l5.07,4.92c.26.25.34.64.2.98Z"/></svg>