<?xml version="1.0" encoding="UTF-8"?><svg id="Layer_2" xmlns="http://www.w3.org/2000/svg" viewBox="0 0 32 32"><defs><style>.cls-1{fill:#fff;}</style></defs><path class="cls-1" d="m31.68,17.64c-.14.36-.49.59-.88.59h-3.23v10.69c0,.53-.43.95-.95.95h-6.51c-.52,0-.95-.42-.95-.95v-8.29h-6.13v8.29c0,.53-.43.95-.95.95h-6.59c-.53,0-.95-.42-.95-.95v-10.69H1.2c-.39,0-.74-.23-.89-.59-.14-.36-.05-.77.23-1.05l7.44-7.09,7.36-7.1c.36-.35.94-.35,1.31,0l4.98,4.71v-.43c0-.53.42-.95.95-.95h2.57c.53,0,.95.42.95.95v4.73l5.36,5.2c.27.26.36.68.21,1.04Z"/></svg>