<svg width="34" height="35" viewBox="0 0 34 35" fill="none" xmlns="http://www.w3.org/2000/svg">
<g filter="url(#filter0_d_133_114)">
<path d="M28 22.0731V13.4639C28 12.2538 27.5016 11.0971 26.622 10.2659L18.5111 2.60101C17.6631 1.79966 16.3369 1.79966 15.4889 2.60101L7.37792 10.2659C6.49839 11.0971 6 12.2538 6 13.4639V22.0731C6 23.2881 6.98497 24.2731 8.2 24.2731H25.8C27.0151 24.2731 28 23.2881 28 22.0731Z" stroke="white" stroke-width="3.63614" stroke-linecap="round" stroke-linejoin="round"/>
<path fill-rule="evenodd" clip-rule="evenodd" d="M6 11L16.5 2L27 11.5V23.5H6V11ZM10 13C10 12.4477 10.4477 12 11 12H15C15.5523 12 16 12.4477 16 13V17C16 17.5523 15.5523 18 15 18H11C10.4477 18 10 17.5523 10 17V13ZM18 13C18 12.4477 18.4477 12 19 12H23C23.5523 12 24 12.4477 24 13V17C24 17.5523 23.5523 18 23 18H19C18.4477 18 18 17.5523 18 17V13Z" fill="white"/>
<path d="M16.5 2L16.8355 1.62923L16.5089 1.33381L16.1746 1.62037L16.5 2ZM6 11L5.6746 10.6204L5.5 10.77V11H6ZM27 11.5H27.5V11.2781L27.3355 11.1292L27 11.5ZM27 23.5V24H27.5V23.5H27ZM6 23.5H5.5V24H6V23.5ZM16.1746 1.62037L5.6746 10.6204L6.3254 11.3796L16.8254 2.37963L16.1746 1.62037ZM27.3355 11.1292L16.8355 1.62923L16.1645 2.37077L26.6645 11.8708L27.3355 11.1292ZM27.5 23.5V11.5H26.5V23.5H27.5ZM6 24H27V23H6V24ZM5.5 11V23.5H6.5V11H5.5ZM11 11.5C10.1716 11.5 9.5 12.1716 9.5 13H10.5C10.5 12.7238 10.7238 12.5 11 12.5V11.5ZM15 11.5H11V12.5H15V11.5ZM16.5 13C16.5 12.1716 15.8284 11.5 15 11.5V12.5C15.2762 12.5 15.5 12.7238 15.5 13H16.5ZM16.5 17V13H15.5V17H16.5ZM15 18.5C15.8284 18.5 16.5 17.8284 16.5 17H15.5C15.5 17.2762 15.2762 17.5 15 17.5V18.5ZM11 18.5H15V17.5H11V18.5ZM9.5 17C9.5 17.8284 10.1716 18.5 11 18.5V17.5C10.7238 17.5 10.5 17.2762 10.5 17H9.5ZM9.5 13V17H10.5V13H9.5ZM19 11.5C18.1716 11.5 17.5 12.1716 17.5 13H18.5C18.5 12.7238 18.7238 12.5 19 12.5V11.5ZM23 11.5H19V12.5H23V11.5ZM24.5 13C24.5 12.1716 23.8284 11.5 23 11.5V12.5C23.2762 12.5 23.5 12.7238 23.5 13H24.5ZM24.5 17V13H23.5V17H24.5ZM23 18.5C23.8284 18.5 24.5 17.8284 24.5 17H23.5C23.5 17.2762 23.2762 17.5 23 17.5V18.5ZM19 18.5H23V17.5H19V18.5ZM17.5 17C17.5 17.8284 18.1716 18.5 19 18.5V17.5C18.7238 17.5 18.5 17.2762 18.5 17H17.5ZM17.5 13V17H18.5V13H17.5Z" fill="white"/>
</g>
<defs>
<filter id="filter0_d_133_114" x="0.181946" y="0.181946" width="33.6361" height="33.9092" filterUnits="userSpaceOnUse" color-interpolation-filters="sRGB">
<feFlood flood-opacity="0" result="BackgroundImageFix"/>
<feColorMatrix in="SourceAlpha" type="matrix" values="0 0 0 0 0 0 0 0 0 0 0 0 0 0 0 0 0 0 127 0" result="hardAlpha"/>
<feOffset dy="4"/>
<feGaussianBlur stdDeviation="2"/>
<feComposite in2="hardAlpha" operator="out"/>
<feColorMatrix type="matrix" values="0 0 0 0 0 0 0 0 0 0 0 0 0 0 0 0 0 0 0.25 0"/>
<feBlend mode="normal" in2="BackgroundImageFix" result="effect1_dropShadow_133_114"/>
<feBlend mode="normal" in="SourceGraphic" in2="effect1_dropShadow_133_114" result="shape"/>
</filter>
</defs>
</svg>
