<svg width="18" height="18" viewBox="0 0 18 18" fill="none" xmlns="http://www.w3.org/2000/svg">
<path d="M5.625 12.9375C6.24632 12.9375 6.75 12.4338 6.75 11.8125C6.75 11.1912 6.24632 10.6875 5.625 10.6875C5.00368 10.6875 4.5 11.1912 4.5 11.8125C4.5 12.4338 5.00368 12.9375 5.625 12.9375Z" stroke="white" stroke-width="1.5" stroke-miterlimit="10" stroke-linecap="round" stroke-linejoin="round"/>
<path d="M2.25 9V14.625H9.05625C9.05625 14.5125 9 14.4562 9 14.3437C9 13.5562 9.61875 12.9375 10.4063 12.9375C11.1938 12.9375 11.8125 13.5562 11.8125 14.3437C11.8125 14.4562 11.8125 14.5125 11.7563 14.625H15.75V9" stroke="white" stroke-width="1.5" stroke-miterlimit="10" stroke-linecap="round" stroke-linejoin="round"/>
<path d="M15.75 9C15.75 5.90625 13.2188 3.375 10.125 3.375L2.25 9H10.125" stroke="white" stroke-width="1.5" stroke-miterlimit="10" stroke-linecap="round" stroke-linejoin="round"/>
<path d="M11.8125 10.6875C12.7445 10.6875 13.5 9.93198 13.5 9C13.5 8.06802 12.7445 7.3125 11.8125 7.3125C10.8805 7.3125 10.125 8.06802 10.125 9C10.125 9.93198 10.8805 10.6875 11.8125 10.6875Z" stroke="white" stroke-width="1.5" stroke-miterlimit="10" stroke-linecap="round" stroke-linejoin="round"/>
</svg>
