<svg width="61" height="52" viewBox="0 0 61 52" fill="none" xmlns="http://www.w3.org/2000/svg">
<g filter="url(#filter0_d_38_340)">
<rect x="4" width="52.8" height="43.0892" rx="8" fill="#E87B17"/>
<g clip-path="url(#clip0_38_340)">
<path d="M18.7267 18.0307V18.0128C18.7267 16.2402 19.2433 14.5074 20.2113 13.0329C21.1794 11.5584 22.5555 10.4083 24.1661 9.72764C25.7766 9.04701 27.5495 8.86636 29.261 9.20848C30.9725 9.5506 32.5459 10.4002 33.7828 11.65C34.7559 11.1619 35.843 10.9567 36.9237 11.057C38.0045 11.1573 39.0369 11.5593 39.9069 12.2185C40.7769 12.8777 41.4507 13.7685 41.8537 14.7925C42.2568 15.8164 42.3735 16.9336 42.1908 18.0207C42.4593 18.0461 42.7198 18.1273 42.956 18.2595C43.1922 18.3917 43.3991 18.5719 43.5637 18.789C43.7283 19.006 43.8471 19.2552 43.9127 19.521C43.9783 19.7868 43.9893 20.0635 43.9451 20.3337C43.0581 25.7554 40.8644 29.187 37.3677 30.6306V31.9706C37.3677 32.7638 37.0576 33.5246 36.5056 34.0855C35.9537 34.6464 35.205 34.9615 34.4244 34.9615H26.5756C25.795 34.9615 25.0463 34.6464 24.4943 34.0855C23.9424 33.5246 23.6323 32.7638 23.6323 31.9706V30.6306C20.1356 29.187 17.9419 25.7554 17.0549 20.3337C17.0121 20.0706 17.0217 19.8015 17.0831 19.5422C17.1445 19.2829 17.2564 19.0387 17.4123 18.8242C17.5682 18.6096 17.7648 18.429 17.9906 18.2931C18.2164 18.1571 18.4667 18.0686 18.7267 18.0327V18.0307ZM20.689 18.0128H22.6512C22.6512 16.6907 23.168 15.4227 24.088 14.4879C25.0079 13.553 26.2557 13.0278 27.5567 13.0278C28.8577 13.0278 30.1054 13.553 31.0254 14.4879C31.9454 15.4227 32.4622 16.6907 32.4622 18.0128H34.4244C34.4244 16.1618 33.7008 14.3867 32.4129 13.0779C31.125 11.7691 29.3781 11.0339 27.5567 11.0339C25.7352 11.0339 23.9884 11.7691 22.7005 13.0779C21.4125 14.3867 20.689 16.1618 20.689 18.0128ZM24.6134 18.0128H30.5C30.5 17.2195 30.1899 16.4587 29.6379 15.8978C29.0859 15.3369 28.3373 15.0218 27.5567 15.0218C26.7761 15.0218 26.0274 15.3369 25.4754 15.8978C24.9235 16.4587 24.6134 17.2195 24.6134 18.0128ZM38.0859 18.0128H40.1874C40.3356 17.4235 40.3494 16.8076 40.2278 16.2121C40.1062 15.6166 39.8525 15.0571 39.4859 14.5763C39.1194 14.0956 38.6496 13.7062 38.1125 13.4378C37.5754 13.1695 36.9851 13.0292 36.3866 13.0278C35.9157 13.0278 35.4683 13.1116 35.0523 13.2651C35.3996 13.8314 35.6861 14.4416 35.9059 15.0816C36.2796 14.9874 36.6723 15.0068 37.0353 15.1374C37.3983 15.268 37.7156 15.504 37.9477 15.8162C38.1799 16.1283 38.3168 16.5029 38.3413 16.8934C38.3659 17.2839 38.2771 17.6731 38.0859 18.0128ZM35.4055 30.9736H25.5945V31.9706C25.5945 32.235 25.6978 32.4886 25.8818 32.6756C26.0658 32.8625 26.3154 32.9676 26.5756 32.9676H34.4244C34.6846 32.9676 34.9342 32.8625 35.1182 32.6756C35.3022 32.4886 35.4055 32.235 35.4055 31.9706V30.9736ZM24.9038 28.9796H36.0962C39.2083 27.9627 41.1783 25.0874 42.0103 20.0067H18.9897C19.8217 25.0874 21.7917 27.9627 24.9038 28.9796Z" fill="white"/>
</g>
</g>
<defs>
<filter id="filter0_d_38_340" x="0" y="0" width="60.8" height="51.0892" filterUnits="userSpaceOnUse" color-interpolation-filters="sRGB">
<feFlood flood-opacity="0" result="BackgroundImageFix"/>
<feColorMatrix in="SourceAlpha" type="matrix" values="0 0 0 0 0 0 0 0 0 0 0 0 0 0 0 0 0 0 127 0" result="hardAlpha"/>
<feOffset dy="4"/>
<feGaussianBlur stdDeviation="2"/>
<feComposite in2="hardAlpha" operator="out"/>
<feColorMatrix type="matrix" values="0 0 0 0 0 0 0 0 0 0 0 0 0 0 0 0 0 0 0.25 0"/>
<feBlend mode="normal" in2="BackgroundImageFix" result="effect1_dropShadow_38_340"/>
<feBlend mode="normal" in="SourceGraphic" in2="effect1_dropShadow_38_340" result="shape"/>
</filter>
<clipPath id="clip0_38_340">
<rect width="27" height="25.9615" fill="white" transform="translate(17 9)"/>
</clipPath>
</defs>
</svg>
