<svg width="17" height="18" viewBox="0 0 17 18" fill="none" xmlns="http://www.w3.org/2000/svg">
<g clip-path="url(#clip0_51_765)">
<path d="M1.08723 6.51293V6.50164C1.08721 5.3856 1.41247 4.29456 2.02198 3.36617C2.63148 2.43778 3.49792 1.71363 4.51198 1.28508C5.52604 0.856531 6.64229 0.742786 7.7199 0.958196C8.7975 1.17361 9.78818 1.70852 10.567 2.49545C11.1797 2.18812 11.8641 2.05891 12.5446 2.12208C13.225 2.18525 13.8751 2.43835 14.4229 2.85341C14.9707 3.26847 15.3949 3.82934 15.6487 4.47404C15.9025 5.11875 15.9759 5.82219 15.8609 6.50666C16.03 6.5226 16.194 6.57378 16.3427 6.65701C16.4914 6.74023 16.6217 6.85371 16.7253 6.99037C16.829 7.12702 16.9038 7.28392 16.9451 7.45126C16.9864 7.61861 16.9933 7.79281 16.9654 7.963C16.407 11.3766 15.0257 13.5373 12.8241 14.4462V15.2899C12.8241 15.7893 12.6289 16.2683 12.2814 16.6215C11.9338 16.9747 11.4624 17.1731 10.9709 17.1731H6.02909C5.53759 17.1731 5.06622 16.9747 4.71868 16.6215C4.37114 16.2683 4.17589 15.7893 4.17589 15.2899V14.4462C1.97429 13.5373 0.59304 11.3766 0.0346101 7.963C0.00765935 7.79733 0.0136857 7.62785 0.0523323 7.4646C0.090979 7.30134 0.161461 7.14762 0.259606 7.01253C0.357752 6.87745 0.481567 6.76374 0.623724 6.67814C0.765881 6.59254 0.923491 6.53679 1.08723 6.51419V6.51293ZM2.32269 6.50164H3.55816C3.55816 5.66921 3.88357 4.87088 4.46281 4.28227C5.04204 3.69365 5.82766 3.36297 6.64682 3.36297C7.46598 3.36297 8.2516 3.69365 8.83083 4.28227C9.41007 4.87088 9.73548 5.66921 9.73548 6.50164H10.9709C10.9709 5.33624 10.5154 4.21858 9.70444 3.39452C8.89351 2.57046 7.79365 2.10751 6.64682 2.10751C5.49999 2.10751 4.40013 2.57046 3.5892 3.39452C2.77827 4.21858 2.32269 5.33624 2.32269 6.50164ZM4.79362 6.50164H8.50002C8.50002 6.00218 8.30477 5.52318 7.95723 5.17001C7.60969 4.81684 7.13832 4.61844 6.64682 4.61844C6.15532 4.61844 5.68395 4.81684 5.33641 5.17001C4.98887 5.52318 4.79362 6.00218 4.79362 6.50164ZM13.2763 6.50164H14.5995C14.6928 6.13061 14.7015 5.74285 14.6249 5.36789C14.5484 4.99293 14.3886 4.64068 14.1578 4.33797C13.927 4.03525 13.6313 3.79008 13.2931 3.62111C12.9549 3.45215 12.5833 3.36386 12.2064 3.36297C11.9099 3.36297 11.6282 3.4157 11.3663 3.51237C11.585 3.86892 11.7654 4.2531 11.9037 4.6561C12.139 4.59679 12.3863 4.60901 12.6149 4.69122C12.8434 4.77344 13.0432 4.92204 13.1893 5.11859C13.3355 5.31514 13.4217 5.55098 13.4371 5.79684C13.4526 6.04271 13.3967 6.28778 13.2763 6.50164ZM11.5887 14.6622H5.41135V15.2899C5.41135 15.4564 5.47644 15.616 5.59228 15.7338C5.70813 15.8515 5.86525 15.9176 6.02909 15.9176H10.9709C11.1348 15.9176 11.2919 15.8515 11.4078 15.7338C11.5236 15.616 11.5887 15.4564 11.5887 15.2899V14.6622ZM4.97647 13.4067H12.0236C13.983 12.7664 15.2234 10.956 15.7473 7.7571H1.25278C1.77662 10.956 3.01702 12.7664 4.97647 13.4067Z" fill="white"/>
</g>
<defs>
<clipPath id="clip0_51_765">
<rect width="17" height="16.3462" fill="white" transform="translate(0 0.826935)"/>
</clipPath>
</defs>
</svg>
