<svg width="17" height="18" viewBox="0 0 17 18" fill="none" xmlns="http://www.w3.org/2000/svg">
<path d="M5.84375 5.28125V6.34375" stroke="white" stroke-miterlimit="10" stroke-linecap="round" stroke-linejoin="round"/>
<path d="M11.1562 5.28125V6.34375" stroke="white" stroke-miterlimit="10" stroke-linecap="round" stroke-linejoin="round"/>
<path d="M8.5 4.75V5.8125" stroke="white" stroke-miterlimit="10" stroke-linecap="round" stroke-linejoin="round"/>
<path d="M14.7687 7.9375C14.2906 4.90937 11.6343 2.625 8.49995 2.625C5.36558 2.625 2.70933 4.90937 2.2312 7.9375H14.7687Z" stroke="white" stroke-miterlimit="10" stroke-linecap="round" stroke-linejoin="round"/>
<path d="M2.125 9L2.92188 9.53125C3.4 9.85 4.0375 9.85 4.51562 9.53125C4.99375 9.2125 5.63125 9.2125 6.10938 9.53125C6.5875 9.85 7.225 9.85 7.70312 9.53125C8.18125 9.2125 8.81875 9.2125 9.29688 9.53125C9.775 9.85 10.4125 9.85 10.8906 9.53125C11.3687 9.2125 12.0063 9.2125 12.4844 9.53125C12.9625 9.85 13.6 9.85 14.0781 9.53125L14.875 9" stroke="white" stroke-miterlimit="10" stroke-linecap="round" stroke-linejoin="round"/>
<path d="M14.3438 13.25H2.65625C2.07187 13.25 1.59375 12.7719 1.59375 12.1875C1.59375 11.6031 2.07187 11.125 2.65625 11.125H14.3438C14.9281 11.125 15.4062 11.6031 15.4062 12.1875C15.4062 12.7719 14.9281 13.25 14.3438 13.25Z" stroke="white" stroke-miterlimit="10" stroke-linecap="round" stroke-linejoin="round"/>
<path d="M14.3438 13.25V13.9937C14.3438 14.7906 13.7063 15.375 12.9625 15.375H4.0375C3.29375 15.375 2.65625 14.7375 2.65625 13.9937V13.25" stroke="white" stroke-miterlimit="10" stroke-linecap="round" stroke-linejoin="round"/>
</svg>
